<?xml version="1.0" encoding="utf-8"?>
<!-- Generator: Adobe Illustrator 19.0.0, SVG Export Plug-In . SVG Version: 6.00 Build 0)  -->
<svg version="1.1" id="logo" xmlns="http://www.w3.org/2000/svg" xmlns:xlink="http://www.w3.org/1999/xlink" x="0px" y="0px"
	 viewBox="-275 367 60 60" style="enable-background:new -275 367 60 60;" xml:space="preserve">
<style type="text/css">
	.st0{fill:url(#SVGID_1_);}
</style>
<linearGradient id="SVGID_1_" gradientUnits="userSpaceOnUse" x1="2052.7222" y1="-2832.7451" x2="2052.7222" y2="-2320.7334" gradientTransform="matrix(0.1172 0 0 -0.1172 -485.5482 95.0449)">
	<stop  offset="0" style="stop-color:#00C0FF"/>
	<stop  offset="1" style="stop-color:#5558FF"/>
</linearGradient>
<path class="st0" d="M-237.9,367c-12.6,0-22.9,10.3-22.9,22.9c0,5.5,1.9,10.7,5.5,14.9l-4,4l-1.2-1.2c-0.7-0.7-1.8-0.7-2.5,0
	l-10.6,10.5c-2.1,2.1-2.1,5.4,0,7.5c2.1,2.1,5.4,2.1,7.5,0l10.5-10.6c0.7-0.7,0.7-1.8,0-2.5l-1.2-1.2l4-4c4.1,3.6,9.3,5.5,14.9,5.5
	c12.6,0,22.9-10.3,22.9-22.9C-215,377.3-225.3,367-237.9,367z M-268.5,423c-0.7,0.7-1.8,0.7-2.5,0c-0.7-0.7-0.7-1.8,0-2.5l9.3-9.3
	l2.5,2.5L-268.5,423z M-237.9,409.2c-5.2,0-10-2-13.7-5.7c0,0,0,0,0,0c0,0,0,0,0,0c0,0,0,0,0,0c0,0,0,0,0,0
	c-3.7-3.6-5.7-8.5-5.7-13.7c0-10.7,8.7-19.3,19.3-19.3c10.7,0,19.3,8.7,19.3,19.3C-218.5,400.5-227.2,409.2-237.9,409.2z
	 M-236.1,381.1v-1.8c0-1-0.8-1.8-1.8-1.8c-1,0-1.8,0.8-1.8,1.8v1.8h-3.5c-1,0-1.8,0.8-1.8,1.8s0.8,1.8,1.8,1.8v10.5
	c-1,0-1.8,0.8-1.8,1.8s0.8,1.8,1.8,1.8h3.5v1.8c0,1,0.8,1.8,1.8,1.8c1,0,1.8-0.8,1.8-1.8v-1.8c2.9,0,5.3-2.4,5.3-5.3
	c0-1.3-0.5-2.6-1.3-3.5c0.8-0.9,1.3-2.2,1.3-3.5C-230.8,383.4-233.2,381.1-236.1,381.1z M-236.1,395.1h-3.5v-3.5h3.5
	c1,0,1.8,0.8,1.8,1.8C-234.3,394.3-235.1,395.1-236.1,395.1z M-236.1,388.1h-3.5v-3.5h3.5c1,0,1.8,0.8,1.8,1.8
	S-235.1,388.1-236.1,388.1z"/>
</svg>
